<?xml version="1.0" standalone="no"?>
<!DOCTYPE svg PUBLIC "-//W3C//DTD SVG 20010904//EN"
 "http://www.w3.org/TR/2001/REC-SVG-20010904/DTD/svg10.dtd">
<svg version="1.0" xmlns="http://www.w3.org/2000/svg"
 width="512.000000pt" height="512.000000pt" viewBox="0 0 512.000000 512.000000"
 preserveAspectRatio="xMidYMid meet">
<metadata>
Created by potrace 1.11, written by Peter Selinger 2001-2013
</metadata>
<g transform="translate(0.000000,512.000000) scale(0.100000,-0.100000)"
fill="#000000" stroke="none">
<path d="M2435 4428 l0 -693 122 -1 c102 0 122 2 125 15 2 9 4 320 3 691 l0
675 -125 3 -125 3 0 -693z"/>
<path d="M1278 4776 l-107 -61 19 -30 c10 -16 27 -46 37 -65 11 -19 45 -79 76
-132 91 -157 158 -272 360 -623 104 -181 193 -334 198 -339 7 -8 202 94 213
112 2 4 -12 34 -31 67 -58 98 -254 437 -281 485 -13 25 -39 70 -57 100 -18 30
-43 73 -55 95 -37 67 -242 419 -254 436 -10 15 -24 9 -118 -45z"/>
<path d="M3552 4527 c-99 -172 -194 -337 -211 -367 -18 -30 -36 -62 -41 -70
-14 -23 -171 -295 -219 -380 -24 -41 -39 -76 -34 -77 4 -2 18 -9 30 -16 136
-77 171 -97 176 -97 4 0 74 115 112 185 6 11 23 40 37 65 383 661 505 872 524
905 l22 41 -108 61 -109 61 -179 -311z"/>
<path d="M2917 4377 c-2 -12 -41 -158 -86 -324 -44 -166 -81 -309 -81 -316 0
-9 36 -23 108 -42 59 -15 111 -28 116 -29 10 -1 19 29 121 408 36 137 63 252
58 256 -4 4 -28 12 -53 18 -25 7 -75 20 -112 31 l-66 19 -5 -21z"/>
<path d="M2060 4360 c-101 -29 -101 -29 -87 -90 3 -14 33 -126 67 -250 34
-124 63 -232 65 -240 17 -74 28 -111 34 -114 13 -7 236 61 234 71 -1 6 -36
138 -78 294 -42 156 -81 301 -86 322 -12 45 -17 45 -149 7z"/>
<path d="M1239 3880 l-87 -87 242 -242 c132 -132 245 -241 249 -241 10 0 167
157 167 167 0 5 -109 117 -242 249 l-243 242 -86 -88z"/>
<path d="M3547 3722 c-130 -130 -237 -241 -237 -245 0 -5 38 -46 84 -91 l84
-83 241 241 c133 133 241 244 241 249 0 9 -158 167 -168 167 -4 0 -114 -107
-245 -238z"/>
<path d="M343 3841 l-62 -106 42 -26 c23 -14 166 -97 317 -184 151 -87 399
-230 550 -317 151 -88 278 -160 284 -161 8 -2 126 189 126 205 0 5 -58 41
-190 115 -19 11 -148 86 -287 166 -139 81 -269 156 -290 168 -21 12 -110 63
-198 114 -88 51 -176 102 -195 112 l-36 20 -61 -106z"/>
<path d="M4350 3738 c-349 -203 -658 -382 -695 -403 -86 -48 -135 -78 -135
-83 0 -9 110 -201 118 -206 4 -2 43 17 87 43 44 26 172 100 285 165 113 65
212 122 220 127 8 5 83 48 165 95 83 47 216 124 297 171 l147 84 -21 37 c-67
121 -100 172 -111 171 -7 0 -167 -91 -357 -201z"/>
<path d="M2450 3589 c-91 -11 -122 -17 -194 -40 -448 -138 -748 -561 -729
-1029 11 -270 111 -498 303 -690 270 -270 645 -368 1015 -265 546 153 865 727
710 1278 -77 272 -259 496 -516 635 -165 89 -403 134 -589 111z"/>
<path d="M787 3153 c-11 -19 -60 -224 -54 -229 4 -4 222 -65 318 -88 9 -3 85
-23 168 -45 84 -23 158 -41 165 -41 8 0 16 12 20 28 3 15 16 67 30 115 16 62
20 90 12 92 -52 17 -637 175 -648 175 -4 0 -9 -3 -11 -7z"/>
<path d="M4180 3124 c-69 -19 -183 -50 -255 -69 -205 -55 -260 -72 -259 -81
11 -67 60 -224 70 -224 7 0 64 14 126 30 354 94 522 140 526 145 11 10 -55
230 -69 232 -8 0 -70 -14 -139 -33z"/>
<path d="M4 2681 c-2 -2 -4 -59 -4 -125 l0 -121 690 0 c451 0 691 3 693 10 2
5 4 62 3 125 l-1 115 -688 0 c-379 0 -690 -2 -693 -4z"/>
<path d="M3736 2680 c-2 -3 -2 -59 -2 -125 l1 -120 693 0 693 0 -3 125 -3 125
-688 0 c-379 0 -690 -2 -691 -5z"/>
<path d="M1360 2368 c-22 -8 -181 -50 -500 -134 -52 -14 -103 -27 -113 -30
-22 -7 -21 -15 15 -149 23 -83 26 -90 49 -89 22 2 70 14 342 88 53 15 105 29
115 31 49 12 177 47 184 51 3 2 -2 35 -13 72 -11 37 -24 88 -30 114 -12 55
-15 58 -49 46z"/>
<path d="M3720 2362 c-1 -9 -14 -62 -29 -117 -16 -55 -26 -103 -23 -107 4 -3
50 -18 102 -32 52 -13 131 -34 175 -46 44 -12 87 -23 95 -25 8 -2 75 -20 149
-40 73 -20 137 -33 141 -28 7 8 47 152 57 205 5 24 1 28 -33 37 -42 11 -403
107 -546 146 -80 21 -88 22 -88 7z"/>
<path d="M1250 1948 c-124 -72 -380 -220 -569 -329 -189 -110 -347 -199 -352
-199 -5 0 -9 -4 -9 -9 0 -5 -10 -11 -21 -14 l-21 -6 19 -33 c11 -18 39 -66 62
-105 23 -40 46 -73 51 -73 4 0 107 57 227 126 120 69 236 136 258 149 201 114
692 399 699 406 8 7 -94 202 -112 213 -4 2 -108 -55 -232 -126z"/>
<path d="M3627 2058 c-35 -55 -107 -183 -107 -189 0 -6 106 -70 262 -157 19
-11 66 -39 103 -61 37 -23 68 -41 70 -41 2 0 112 -63 246 -141 133 -77 261
-151 283 -163 23 -13 84 -48 136 -79 l95 -55 38 67 c21 36 49 85 63 107 l24
42 -173 99 c-218 126 -677 392 -697 404 -8 5 -71 41 -140 80 -69 39 -139 80
-157 91 l-32 19 -14 -23z"/>
<path d="M1397 1572 c-130 -130 -237 -240 -237 -244 0 -4 38 -45 84 -92 l83
-84 242 242 c132 132 241 245 241 249 0 10 -157 167 -167 167 -5 0 -115 -107
-246 -238z"/>
<path d="M3388 1729 c-43 -43 -78 -82 -78 -86 0 -5 109 -116 241 -249 l242
-242 87 87 88 86 -241 243 c-133 133 -246 242 -252 241 -5 0 -45 -36 -87 -80z"/>
<path d="M1739 1388 c-137 -239 -285 -495 -449 -780 -61 -105 -109 -196 -107
-202 3 -6 50 -36 105 -67 l100 -57 74 126 c40 70 75 131 77 137 2 5 15 27 28
48 13 21 33 54 43 72 27 48 271 471 375 650 47 82 87 153 88 158 2 9 -189 127
-205 127 -3 0 -61 -96 -129 -212z"/>
<path d="M3175 1560 c-33 -21 -64 -39 -70 -40 -5 0 -22 -11 -38 -23 l-27 -23
28 -44 c16 -25 42 -70 59 -100 17 -30 112 -197 213 -370 100 -173 196 -340
213 -370 27 -48 176 -302 181 -307 1 -1 49 26 108 60 l106 62 -107 185 c-59
102 -188 324 -286 495 -286 497 -297 515 -309 514 -6 0 -38 -18 -71 -39z"/>
<path d="M2136 1452 c-2 -4 -20 -68 -40 -142 -19 -74 -58 -220 -86 -324 -28
-104 -48 -192 -43 -196 12 -11 222 -64 229 -57 3 3 45 153 93 333 l88 329 -46
12 c-25 6 -79 20 -118 32 -40 11 -74 17 -77 13z"/>
<path d="M2950 1450 c-14 -5 -64 -19 -112 -31 -57 -15 -88 -28 -88 -38 0 -7
23 -97 51 -200 28 -102 52 -193 54 -201 14 -60 65 -243 69 -248 3 -3 56 8 118
24 125 33 125 33 102 109 -7 22 -45 162 -85 310 -39 149 -74 273 -78 276 -3 4
-17 3 -31 -1z"/>
<path d="M2436 1381 c-1 -3 -2 -314 -2 -691 l1 -685 125 -3 125 -3 0 693 0
693 -123 1 c-68 0 -124 -2 -126 -5z"/>
</g>
</svg>
