<?xml version="1.0" standalone="no"?>
<!DOCTYPE svg PUBLIC "-//W3C//DTD SVG 20010904//EN"
 "http://www.w3.org/TR/2001/REC-SVG-20010904/DTD/svg10.dtd">
<svg version="1.0" xmlns="http://www.w3.org/2000/svg"
 width="276.000000pt" height="276.000000pt" viewBox="0 0 276.000000 276.000000"
 preserveAspectRatio="xMidYMid meet">
<metadata>
Created by potrace 1.14, written by Peter Selinger 2001-2017
</metadata>
<g transform="translate(0.000000,276.000000) scale(0.100000,-0.100000)"
fill="#000000" stroke="none">
<path d="M1249 2756 c-2 -2 -33 -7 -68 -11 -68 -7 -252 -56 -311 -82 -199 -88
-324 -170 -454 -298 -202 -197 -336 -447 -393 -732 -24 -119 -24 -383 0 -506
116 -589 584 -1033 1174 -1115 68 -10 329 -8 392 2 580 97 1023 523 1146 1103
26 120 28 362 5 494 -69 386 -282 709 -610 926 -215 142 -450 213 -721 219
-86 2 -158 2 -160 0z"/>
</g>
</svg>
