<?xml version="1.0" standalone="no"?>
<!DOCTYPE svg PUBLIC "-//W3C//DTD SVG 20010904//EN"
 "http://www.w3.org/TR/2001/REC-SVG-20010904/DTD/svg10.dtd">
<svg version="1.0" xmlns="http://www.w3.org/2000/svg"
 width="300.000000pt" height="300.000000pt" viewBox="0 0 300.000000 300.000000"
 preserveAspectRatio="xMidYMid meet">
<metadata>
Created by potrace 1.11, written by Peter Selinger 2001-2013
</metadata>
<g transform="translate(0.000000,300.000000) scale(0.100000,-0.100000)"
fill="#000000" stroke="none">
<path d="M1757 2483 c-2 -2 -21 -6 -40 -8 -127 -16 -335 -106 -432 -187 -135
-112 -130 -108 -133 -85 -22 192 -79 266 -194 252 -54 -7 -88 -31 -112 -81
-19 -38 -20 -67 -20 -864 -1 -891 -2 -871 52 -906 59 -38 163 -34 211 10 51
46 51 50 51 577 l-1 491 27 56 c14 31 37 71 50 89 13 17 24 35 24 40 0 5 8 15
18 24 9 8 28 29 42 45 32 38 102 94 160 127 50 29 203 82 265 92 22 4 52 9 68
11 15 3 28 2 28 -3 3 -22 11 -220 10 -244 -1 -12 -15 -18 -50 -22 -96 -11
-199 -81 -292 -197 -101 -127 -194 -328 -217 -470 -13 -83 -6 -255 13 -310 11
-30 19 -57 20 -60 0 -3 14 -30 32 -61 63 -112 194 -212 333 -254 157 -47 360
-15 537 86 52 30 112 89 114 112 0 7 2 20 4 29 5 25 -32 93 -58 107 -39 20
-70 16 -137 -19 -175 -90 -195 -97 -285 -95 -276 6 -411 211 -325 490 25 81
105 239 153 301 17 23 53 57 79 74 40 27 57 33 105 33 61 1 141 -10 158 -21 5
-4 13 -7 16 -7 4 0 33 -19 64 -42 47 -35 66 -43 101 -43 37 0 46 5 73 37 62
75 33 160 -77 223 -46 26 -60 39 -56 52 14 45 16 81 15 183 -2 171 -10 221
-48 303 -30 64 -53 87 -118 118 -42 20 -64 24 -137 23 -48 -1 -89 -3 -91 -6z"/>
</g>
</svg>
