<?xml version="1.0" standalone="no"?>
<!DOCTYPE svg PUBLIC "-//W3C//DTD SVG 20010904//EN"
 "http://www.w3.org/TR/2001/REC-SVG-20010904/DTD/svg10.dtd">
<svg version="1.0" xmlns="http://www.w3.org/2000/svg"
 width="512.000000pt" height="512.000000pt" viewBox="0 0 512.000000 512.000000"
 preserveAspectRatio="xMidYMid meet">
<metadata>
Created by potrace 1.14, written by Peter Selinger 2001-2017
</metadata>
<g transform="translate(0.000000,512.000000) scale(0.100000,-0.100000)"
fill="#000000" stroke="none">
<path d="M2378 5055 c-2 -2 -41 -6 -87 -9 -47 -4 -87 -9 -91 -11 -3 -2 -26 -6
-50 -10 -224 -33 -481 -116 -704 -228 -418 -209 -788 -550 -1025 -945 -34 -57
-65 -111 -68 -120 -3 -9 -11 -24 -18 -32 -19 -24 -101 -217 -140 -329 -41
-120 -78 -263 -95 -371 -7 -41 -14 -84 -16 -95 -25 -135 -25 -624 1 -697 2 -7
6 -31 9 -53 21 -187 122 -498 232 -716 48 -96 159 -280 201 -334 13 -16 27
-34 31 -40 78 -105 120 -153 242 -276 345 -347 807 -593 1287 -684 167 -32
256 -39 463 -40 201 0 286 6 425 30 418 72 814 249 1145 513 114 90 301 276
389 387 245 306 425 690 500 1065 37 186 46 280 46 495 0 160 -7 292 -19 350
-2 11 -9 54 -16 95 -48 301 -190 656 -370 929 -45 68 -88 131 -95 140 -190
239 -385 421 -625 582 -125 84 -359 203 -490 249 -19 6 -44 16 -55 20 -62 26
-267 82 -350 95 -22 4 -52 9 -66 11 -110 19 -270 32 -416 32 -95 0 -173 -2
-175 -3z m329 -1189 c230 -20 450 -121 605 -278 66 -67 163 -210 175 -258 3
-14 9 -29 13 -35 7 -9 39 -112 45 -145 41 -218 12 -442 -80 -616 -64 -121
-154 -222 -265 -297 -25 -17 -46 -31 -48 -33 -3 -2 117 -227 220 -414 51 -92
147 -267 175 -320 17 -30 51 -92 76 -137 37 -67 42 -83 29 -84 -118 -5 -786 1
-792 7 -4 5 -23 38 -42 74 -19 36 -112 212 -208 393 l-173 327 -131 0 -132 0
1 -396 c0 -218 -4 -398 -8 -401 -7 -4 -585 -7 -694 -4 l-23 1 0 1309 0 1310
33 3 c59 6 1150 0 1224 -6z"/>
<path d="M2179 3228 c-1 -2 -2 -130 -3 -286 l-2 -284 216 4 c199 3 219 5 265
26 104 48 167 143 166 252 0 97 -41 184 -108 230 -74 51 -123 59 -335 60 -109
0 -199 -1 -199 -2z"/>
</g>
</svg>
